<svg id="Layer_1" data-name="Layer 1" xmlns="http://www.w3.org/2000/svg" viewBox="0 0 636.33 99.52"><defs><style>.cls-1,.cls-2{fill:#12100b;}.cls-11,.cls-2{font-size:32.3px;font-family:ProximaNova-Extrabld, Proxima Nova;}.cls-3{letter-spacing:0em;}.cls-4{letter-spacing:0em;}.cls-5{letter-spacing:-0.01em;}.cls-6{letter-spacing:-0.02em;}.cls-7{letter-spacing:0.01em;}.cls-8{letter-spacing:0em;}.cls-9{letter-spacing:-0.03em;}.cls-10{letter-spacing:0em;}.cls-11{fill:#1d1d1b;letter-spacing:-0.01em;}.cls-12{letter-spacing:-0.02em;}.cls-13{letter-spacing:0em;}</style></defs><title>Serverless Days 2020 logo black</title><path class="cls-1" d="M589.85,97.65V2.2m2,0h-4V97.65h4Zm15.2,89.58L608.29,93l4.63,4.63,1.18-1.18h0l6.54-6.53,5.2,5.19,2.51,2.52,4.58-4.53h0l1.25-1.23-7.68-7.82,7.68-7.67-.89-.9v0l-4.94-5-1.12,1.12h0l-6.6,6.6-7-7h0l-.76-.75-4.63,4.63h0l-1.24,1.23,7.72,7.72Zm0-34.37,1.24,1.23,4.63,4.63,1.18-1.18h0l6.54-6.53,5.2,5.2,2.51,2.51,4.58-4.53h0l1.25-1.23L626.5,49.7,634.18,42l-.89-.9v0l-4.94-5-1.12,1.12h0l-6.6,6.6-7-7h0l-.76-.75-4.63,4.63h0L607.05,42l7.72,7.72Zm-1-33.9,1.24,1.23,4.63,4.63,1.18-1.18h0l6.54-6.53,5.2,5.2,2.51,2.51,4.58-4.53h0l1.25-1.23L625.5,15.8l7.68-7.68-.89-.9v0l-4.94-5-1.12,1.12h0l-6.6,6.6-7-7h0l-.76-.75-4.63,4.63h0l-1.24,1.23,7.72,7.72Z"/><path class="cls-1" d="M9.91,62.34H1.13L20.35,3H29Z"/><path class="cls-1" d="M41.29,47.51A19.66,19.66,0,0,0,46,47.07c1.1-.3,1.65-.91,1.65-1.82a2.29,2.29,0,0,0-.52-1.51,4.23,4.23,0,0,0-1.44-1.07,20.51,20.51,0,0,0-2.13-.85c-.8-.28-1.63-.55-2.5-.83-1.24-.36-2.5-.79-3.78-1.27a15.46,15.46,0,0,1-3.5-1.82,9.25,9.25,0,0,1-2.61-2.78,8,8,0,0,1-1-4.22A9.79,9.79,0,0,1,31,27a8.79,8.79,0,0,1,2.47-3.22,12,12,0,0,1,4.29-2.2A22,22,0,0,1,44,20.81a33.78,33.78,0,0,1,5.87.48,20.3,20.3,0,0,1,4.7,1.37l-1.3,7.14c-.78-.23-2-.6-3.64-1.13A18.43,18.43,0,0,0,44,27.88c-2.15,0-3.6.27-4.36.79a2.17,2.17,0,0,0-1.13,1.68,2,2,0,0,0,.51,1.34,5,5,0,0,0,1.38,1.06,14.92,14.92,0,0,0,2,.93c.75.3,1.56.58,2.43.86,1.24.41,2.52.87,3.85,1.37a16.61,16.61,0,0,1,3.6,1.89A9.12,9.12,0,0,1,55,40.68,8.31,8.31,0,0,1,56,45a9.66,9.66,0,0,1-.75,3.78,7.53,7.53,0,0,1-2.51,3.09,13.59,13.59,0,0,1-4.56,2.06,27.41,27.41,0,0,1-6.94.75,23.16,23.16,0,0,1-7.13-1q-3-1-4.74-1.72l1.3-7.07c1.61.65,3.31,1.24,5.12,1.79A18.83,18.83,0,0,0,41.29,47.51Z"/><path class="cls-1" d="M60.36,38a19.83,19.83,0,0,1,1.31-7.48,16.08,16.08,0,0,1,3.43-5.39A14.15,14.15,0,0,1,70,21.91a15.09,15.09,0,0,1,5.63-1.1q7.14,0,10.84,4.22t3.71,12.32c0,.55,0,1.13,0,1.72s-.06,1.08-.11,1.44H69.08a5.75,5.75,0,0,0,2.61,5,11.52,11.52,0,0,0,6.72,1.82,21,21,0,0,0,4.84-.55,40.28,40.28,0,0,0,3.88-1.1l1.17,7.21a40.69,40.69,0,0,1-4.67,1.27,27.63,27.63,0,0,1-5.56.51,23.69,23.69,0,0,1-7.38-1.06,15,15,0,0,1-5.56-3.16,13.84,13.84,0,0,1-3.53-5.18A19.2,19.2,0,0,1,60.36,38ZM82,34.68a9.05,9.05,0,0,0-.34-2.51A6.31,6.31,0,0,0,80.54,30a5.55,5.55,0,0,0-1.92-1.55,6.54,6.54,0,0,0-2.88-.58,6.9,6.9,0,0,0-2.85.55,5.48,5.48,0,0,0-2,1.51,7.29,7.29,0,0,0-1.24,2.2,10.52,10.52,0,0,0-.58,2.54Z"/><path class="cls-1" d="M120.66,30.22q-.82-.21-2-.42c-.76-.13-1.53-.26-2.3-.37s-1.54-.2-2.27-.24-1.35-.07-1.85-.07c-1.19,0-2.36.06-3.5.17a21.05,21.05,0,0,0-3.5.65v24H96.77V23.76a52.86,52.86,0,0,1,6.9-2,40.3,40.3,0,0,1,8.27-.75c.46,0,1.11,0,2,.07s1.75.12,2.71.24,1.93.25,2.92.41a15.93,15.93,0,0,1,2.64.65Z"/><path class="cls-1" d="M138,53.9q-3.09-6.12-6.28-14.32t-6.07-17.94h8.85q.62,2.61,1.48,5.55c.57,2,1.17,3.95,1.82,5.94s1.29,3.93,2,5.8,1.29,3.6,1.89,5.15c.59-1.55,1.26-3.27,2-5.15s1.45-3.81,2.16-5.8,1.4-4,2.06-5.94,1.2-3.81,1.61-5.55H158a165.18,165.18,0,0,1-6.38,17.94q-3.5,8.2-6.59,14.32Z"/><path class="cls-1" d="M159.28,38a19.83,19.83,0,0,1,1.31-7.48A16.24,16.24,0,0,1,164,25.17a14.15,14.15,0,0,1,4.87-3.26,15.09,15.09,0,0,1,5.63-1.1q7.14,0,10.85,4.22t3.7,12.32c0,.55,0,1.13,0,1.72s-.06,1.08-.1,1.44H168a5.75,5.75,0,0,0,2.61,5,11.53,11.53,0,0,0,6.73,1.82,21,21,0,0,0,4.83-.55,40.28,40.28,0,0,0,3.88-1.1l1.17,7.21a40.14,40.14,0,0,1-4.67,1.27,27.56,27.56,0,0,1-5.56.51,23.78,23.78,0,0,1-7.38-1.06,15.12,15.12,0,0,1-5.56-3.16,13.84,13.84,0,0,1-3.53-5.18A19.4,19.4,0,0,1,159.28,38Zm21.63-3.36a9.06,9.06,0,0,0-.35-2.51,6.14,6.14,0,0,0-1.1-2.16,5.55,5.55,0,0,0-1.92-1.55,6.54,6.54,0,0,0-2.88-.58,6.9,6.9,0,0,0-2.85.55,5.57,5.57,0,0,0-2,1.51,7.29,7.29,0,0,0-1.24,2.2,11,11,0,0,0-.58,2.54Z"/><path class="cls-1" d="M219.58,30.22q-.83-.21-2-.42c-.76-.13-1.52-.26-2.3-.37s-1.54-.2-2.27-.24-1.35-.07-1.85-.07c-1.19,0-2.36.06-3.5.17a21.24,21.24,0,0,0-3.5.65v24H195.7V23.76a52.27,52.27,0,0,1,6.89-2,40.33,40.33,0,0,1,8.28-.75c.45,0,1.1,0,1.95.07s1.75.12,2.71.24,1.94.25,2.92.41a15.93,15.93,0,0,1,2.64.65Z"/><path class="cls-1" d="M250.24,52.52a7.15,7.15,0,0,1-.92.48,15.32,15.32,0,0,1-1.89.72,19.59,19.59,0,0,1-2.85.66,24.18,24.18,0,0,1-3.81.27c-3.89,0-6.72-1.15-8.51-3.47s-2.68-5.68-2.68-10.12V13.67h-8.92v-7H238v35c0,2.19.43,3.68,1.3,4.46a4.76,4.76,0,0,0,3.3,1.17,11.42,11.42,0,0,0,4.25-.69c1.14-.46,1.9-.76,2.27-.89Z"/><path class="cls-1" d="M252.91,38a19.83,19.83,0,0,1,1.3-7.48,16.24,16.24,0,0,1,3.43-5.39,14.19,14.19,0,0,1,4.88-3.26,15,15,0,0,1,5.63-1.1q7.13,0,10.84,4.22t3.71,12.32c0,.55,0,1.13,0,1.72s-.06,1.08-.1,1.44H261.62a5.75,5.75,0,0,0,2.61,5A11.53,11.53,0,0,0,271,47.31a21.18,21.18,0,0,0,4.84-.55c1.53-.37,2.82-.73,3.88-1.1l1.16,7.21a40.51,40.51,0,0,1-4.66,1.27,27.63,27.63,0,0,1-5.56.51,23.69,23.69,0,0,1-7.38-1.06,15,15,0,0,1-5.56-3.16,13.86,13.86,0,0,1-3.54-5.18A19.41,19.41,0,0,1,252.91,38Zm21.62-3.36a9.45,9.45,0,0,0-.34-2.51,6.31,6.31,0,0,0-1.1-2.16,5.74,5.74,0,0,0-1.92-1.55,6.55,6.55,0,0,0-2.89-.58,6.9,6.9,0,0,0-2.85.55,5.57,5.57,0,0,0-2,1.51,7.49,7.49,0,0,0-1.23,2.2,11,11,0,0,0-.59,2.54Z"/><path class="cls-1" d="M299.07,47.51a19.66,19.66,0,0,0,4.74-.44c1.1-.3,1.65-.91,1.65-1.82a2.24,2.24,0,0,0-.52-1.51,4.23,4.23,0,0,0-1.44-1.07,20.51,20.51,0,0,0-2.13-.85c-.8-.28-1.63-.55-2.5-.83-1.24-.36-2.49-.79-3.78-1.27a15.68,15.68,0,0,1-3.5-1.82A9.25,9.25,0,0,1,289,35.12a8,8,0,0,1-1-4.22,9.79,9.79,0,0,1,.79-3.88,8.72,8.72,0,0,1,2.48-3.22,12,12,0,0,1,4.29-2.2,21.88,21.88,0,0,1,6.24-.79,33.78,33.78,0,0,1,5.87.48,20.3,20.3,0,0,1,4.7,1.37L311,29.8c-.78-.23-2-.6-3.64-1.13a18.43,18.43,0,0,0-5.56-.79c-2.15,0-3.6.27-4.36.79a2.17,2.17,0,0,0-1.13,1.68,2,2,0,0,0,.51,1.34,5,5,0,0,0,1.38,1.06,14.92,14.92,0,0,0,2,.93c.75.3,1.56.58,2.43.86,1.24.41,2.52.87,3.85,1.37a16.38,16.38,0,0,1,3.6,1.89,9,9,0,0,1,2.64,2.88,8.31,8.31,0,0,1,1,4.29,9.66,9.66,0,0,1-.75,3.78,7.53,7.53,0,0,1-2.51,3.09,13.5,13.5,0,0,1-4.56,2.06,27.38,27.38,0,0,1-6.93.75,23.19,23.19,0,0,1-7.14-1q-3-1-4.74-1.72l1.3-7.07c1.61.65,3.31,1.24,5.12,1.79A18.88,18.88,0,0,0,299.07,47.51Z"/><path class="cls-1" d="M330.6,47.51a19.66,19.66,0,0,0,4.74-.44c1.1-.3,1.64-.91,1.64-1.82a2.28,2.28,0,0,0-.51-1.51A4.23,4.23,0,0,0,335,42.67a20.51,20.51,0,0,0-2.13-.85c-.8-.28-1.64-.55-2.51-.83-1.23-.36-2.49-.79-3.77-1.27a15.46,15.46,0,0,1-3.5-1.82,9.25,9.25,0,0,1-2.61-2.78,7.93,7.93,0,0,1-1-4.22,9.62,9.62,0,0,1,.79-3.88,8.79,8.79,0,0,1,2.47-3.22A12,12,0,0,1,327,21.6a22,22,0,0,1,6.25-.79,33.78,33.78,0,0,1,5.87.48,20.45,20.45,0,0,1,4.7,1.37l-1.31,7.14c-.78-.23-2-.6-3.63-1.13a18.48,18.48,0,0,0-5.56-.79c-2.15,0-3.61.27-4.36.79a2.15,2.15,0,0,0-1.13,1.68,2,2,0,0,0,.51,1.34,4.92,4.92,0,0,0,1.37,1.06,15.53,15.53,0,0,0,2,.93c.76.3,1.57.58,2.44.86,1.23.41,2.52.87,3.84,1.37a16.46,16.46,0,0,1,3.61,1.89,9.24,9.24,0,0,1,2.64,2.88,8.31,8.31,0,0,1,1,4.29,9.49,9.49,0,0,1-.76,3.78,7.42,7.42,0,0,1-2.5,3.09,13.55,13.55,0,0,1-4.57,2.06,27.27,27.27,0,0,1-6.93.75,23.27,23.27,0,0,1-7.14-1c-2-.64-3.54-1.21-4.73-1.72L320,44.9c1.6.65,3.31,1.24,5.12,1.79A18.78,18.78,0,0,0,330.6,47.51Z"/><path class="cls-1" d="M356.73,62.34H348L367.17,3h8.64Z"/><path class="cls-1" d="M419.41,21.24h-6.84V44.81h6.84c7.46,0,11.81-5.37,11.81-11.76C431.22,26.38,427.15,21.24,419.41,21.24Z"/><polygon class="cls-1" points="452.69 38.42 465.19 38.42 458.97 21.13 452.69 38.42"/><path class="cls-1" d="M389.18,2.25,371.72,62.81H554.17L571.63,2.25Zm30.23,49.62H404.54V14.17h14.87c11.81,0,20,7.52,20,18.88S431.22,51.87,419.41,51.87Zm50.36,0-2.38-6.5H450.55l-2.38,6.5h-8.82l14.59-37.7H464l14.53,37.7Zm26.28,0h-8V36.44L473.5,14.17h9.15L492,29.32l9.27-15.15h9.15L496.05,36.44Zm29.7.68c-7.24,0-12.44-2.43-16-6l4.41-6.1a16.52,16.52,0,0,0,12,5.08c4.41,0,6.56-2.09,6.56-4.24,0-2.82-3.28-3.78-7.63-4.8C518.91,35.09,511,33.39,511,25c0-6.28,5.43-11.36,14.31-11.36,6,0,11,1.81,14.69,5.25l-4.46,5.88a16.12,16.12,0,0,0-10.8-4.12c-3.62,0-5.54,1.58-5.54,3.84,0,2.54,3.17,3.34,7.52,4.35,6.22,1.42,14.13,3.28,14.13,11.65C540.84,47.35,535.92,52.55,525.75,52.55Z"/><path class="cls-1" d="M336.22,64.83H322.08a2,2,0,1,1,0-4h14.14a2,2,0,0,1,0,4Zm-26.25,0H295.84a2,2,0,1,1,0-4H310a2,2,0,0,1,0,4Zm-26.24,0H269.6a2,2,0,0,1,0-4h14.13a2,2,0,0,1,0,4Zm-26.25,0H243.35a2,2,0,1,1,0-4h14.13a2,2,0,0,1,0,4Zm-26.24,0H217.11a2,2,0,0,1,0-4h14.13a2,2,0,0,1,0,4Zm-26.25,0H190.86a2,2,0,0,1,0-4H205a2,2,0,0,1,0,4Zm-26.24,0H164.62a2,2,0,0,1,0-4h14.13a2,2,0,1,1,0,4Zm-26.24,0H138.37a2,2,0,0,1,0-4h14.14a2,2,0,0,1,0,4Zm-26.25,0H112.13a2,2,0,1,1,0-4h14.13a2,2,0,0,1,0,4Zm-26.24,0H85.88a2,2,0,0,1,0-4H100a2,2,0,1,1,0,4Zm-26.25,0H59.64a2,2,0,0,1,0-4H73.77a2,2,0,1,1,0,4Zm-26.24,0H33.4a2,2,0,0,1,0-4H47.53a2,2,0,0,1,0,4Z"/><text class="cls-2" transform="translate(261.44 97.51)"><tspan class="cls-3">A</tspan><tspan class="cls-4" x="22.41" y="0">M</tspan><tspan class="cls-5" x="50.76" y="0">S</tspan><tspan class="cls-6" x="70.07" y="0">T</tspan><tspan class="cls-7" x="88.43" y="0">E</tspan><tspan class="cls-8" x="107.69" y="0">R</tspan><tspan class="cls-9" x="128.92" y="0">D</tspan><tspan class="cls-10" x="151.37" y="0">A</tspan><tspan x="173.78" y="0">M</tspan></text><text class="cls-11" transform="translate(478.58 97.51)">2<tspan class="cls-12" x="19.39" y="0">0</tspan><tspan x="38.82" y="0">2</tspan><tspan class="cls-13" x="58.21" y="0">0</tspan></text></svg>